<?xml version="1.0" encoding="iso-8859-1"?>
<!-- Generator: Adobe Illustrator 18.0.0, SVG Export Plug-In . SVG Version: 6.00 Build 0)  -->
<!DOCTYPE svg PUBLIC "-//W3C//DTD SVG 1.1//EN" "http://www.w3.org/Graphics/SVG/1.1/DTD/svg11.dtd">
<svg version="1.1" id="_x31_" xmlns="http://www.w3.org/2000/svg" xmlns:xlink="http://www.w3.org/1999/xlink" x="0px" y="0px"
	 viewBox="0 0 512 512" style="enable-background:new 0 0 512 512;" xml:space="preserve">
<g>
	<rect style="fill:#E2A867;" width="512" height="512"/>
	<polygon style="opacity:0.1;fill:#040000;" points="512,195.738 512,512 202.445,512 120.064,429.67 85.555,395.11 85.555,239.514 
		84.787,239.514 84.787,205.824 85.248,205.824 78.746,172.749 95.437,169.421 98.253,168.857 132.454,162.15 179.302,152.883 
		216.32,145.664 258.048,137.369 263.27,136.397 300.288,129.075 347.136,119.859 377.088,113.971 384.205,112.537 421.427,105.165 
			"/>
	<g>
		<g>
			<circle style="fill:#606060;" cx="114.056" cy="192.066" r="30.575"/>
			<polygon style="fill:#F0EFEF;" points="435.301,228.467 435.301,389.281 405.97,418.612 112.773,418.612 83.498,389.281 
				83.498,228.467 			"/>
			<g>
				<polygon style="fill:#F0E057;" points="154.813,194.744 137.817,228.481 185.591,228.481 202.588,194.744 				"/>
				<polygon style="fill:#3F3F3F;" points="394.378,228.481 435.262,228.481 435.262,194.744 411.375,194.744 				"/>
				<polygon style="fill:#6EB9D2;" points="240.333,194.744 223.337,228.481 271.112,228.481 288.108,194.744 				"/>
				<polygon style="fill:#E3ECF8;" points="325.854,194.744 308.858,228.481 356.633,228.481 373.629,194.744 				"/>
				<polygon style="fill:#3F3F3F;" points="117.043,194.753 103.895,220.882 100.074,228.467 82.768,228.467 82.768,194.753 				"/>
				<polygon style="fill:#3C4858;" points="373.629,194.744 356.633,228.481 394.378,228.481 411.375,194.744 				"/>
				<polygon style="fill:#C03555;" points="288.108,194.744 271.112,228.481 308.858,228.481 325.854,194.744 				"/>
				<polygon style="fill:#448538;" points="202.588,194.744 185.591,228.481 223.337,228.481 240.333,194.744 				"/>
				<polygon style="fill:#3C4858;" points="117.067,194.744 100.071,228.481 137.817,228.481 154.813,194.744 				"/>
			</g>
			<g>
				<polygon style="fill:#E3ECF8;" points="368.323,138.62 321.404,147.835 298.254,117.998 345.117,108.784 				"/>
				<polygon style="fill:#3F3F3F;" points="116.594,188.179 83.611,194.697 83.217,194.753 76.699,161.658 93.388,158.342 
					96.197,157.781 100.748,164.579 				"/>
				<polygon style="fill:#6EB9D2;" points="284.376,155.14 256,160.703 237.514,164.355 214.307,134.574 256,126.314 
					261.226,125.303 				"/>
				<polygon style="fill:#F0E057;" points="200.485,171.659 153.623,180.875 130.416,151.094 177.279,141.822 				"/>
				<polygon style="fill:#3F3F3F;" points="429.794,126.483 405.464,131.316 404.958,130.809 375.066,102.883 382.145,101.479 
					419.399,94.118 423.276,93.388 424.4,99.118 				"/>
				<polygon style="fill:#3C4858;" points="153.623,180.875 143.228,182.954 116.594,188.179 98.95,165.534 93.388,158.342 
					96.197,157.781 130.416,151.094 				"/>
				<polygon style="fill:#448538;" points="237.514,164.355 200.485,171.659 177.279,141.822 214.307,134.574 				"/>
				<polygon style="fill:#C03555;" points="321.404,147.835 284.376,155.14 261.226,125.303 298.254,117.998 				"/>
				<polygon style="fill:#3C4858;" points="405.352,131.316 368.323,138.62 345.117,108.784 375.066,102.883 382.145,101.479 
					404.958,130.809 405.071,130.922 				"/>
			</g>
			<circle style="fill:#F0E1B7;" cx="93.426" cy="175.946" r="4.29"/>
			<circle style="fill:#F0E1B7;" cx="93.426" cy="212.257" r="4.29"/>
			<rect x="134.933" y="258.443" style="fill:#454444;" width="248.909" height="50.276"/>
			<g>
				<path style="fill:#E3354E;" d="M159.354,270.722l-6.181,4.439v4.945l6.181-4.439v20.228h5.506v-25.173H159.354z"/>
				<path style="fill:#E3354E;" d="M173.963,270.722v8.092h5.282v-3.934h7.923l-9.777,21.015h6.012l9.777-21.015v-4.158H173.963z"/>
				<path style="fill:#E3354E;" d="M197.732,290.668v5.226h6.349v-5.226H197.732z"/>
				<path style="fill:#E3354E;" d="M217.454,270.722l-6.124,4.439v4.945l6.124-4.439v20.228h5.507v-25.173H217.454z"/>
				<path style="fill:#E3354E;" d="M247.628,283.589c0.506-0.505,0.956-0.955,1.349-1.405c0.393-0.449,0.731-0.898,1.011-1.349
					c0.281-0.449,0.506-0.898,0.618-1.349c0.169-0.505,0.225-1.067,0.225-1.685c0-1.124-0.225-2.135-0.674-3.035
					c-0.449-0.899-1.068-1.685-1.91-2.304c-0.787-0.617-1.742-1.124-2.866-1.461c-1.18-0.337-2.36-0.505-3.709-0.505
					c-1.292,0-2.528,0.169-3.652,0.505c-1.068,0.337-2.079,0.787-2.922,1.461c-0.787,0.619-1.461,1.405-1.91,2.304
					c-0.506,0.899-0.73,1.91-0.73,3.091h5.507c0-0.618,0.113-1.124,0.337-1.517c0.225-0.449,0.506-0.787,0.843-1.012
					c0.337-0.225,0.73-0.449,1.18-0.505c0.45-0.112,0.899-0.168,1.349-0.168c1.18,0,2.079,0.28,2.697,0.842
					c0.618,0.563,0.955,1.349,0.955,2.304c0,0.562-0.113,1.068-0.393,1.517c-0.225,0.45-0.618,0.956-1.18,1.517l-11.294,10.901
					v4.158h18.374v-4.158h-11.687L247.628,283.589z"/>
				<path style="fill:#E3354E;" d="M255.888,290.668v5.226h6.293v-5.226H255.888z"/>
				<path style="fill:#E3354E;" d="M284.994,274.823c-0.45-0.956-1.124-1.742-1.967-2.36c-0.843-0.674-1.798-1.124-2.922-1.461
					c-1.124-0.337-2.304-0.505-3.484-0.505c-1.292,0-2.416,0.169-3.54,0.505c-1.124,0.337-2.079,0.787-2.922,1.461
					c-0.843,0.619-1.517,1.405-2.023,2.36c-0.506,0.899-0.73,1.966-0.73,3.203v10.564c0,1.18,0.225,2.247,0.73,3.202
					c0.506,0.956,1.18,1.742,2.023,2.36c0.843,0.617,1.798,1.124,2.922,1.461c1.124,0.281,2.248,0.449,3.54,0.449
					c1.18,0,2.36-0.169,3.484-0.449c1.124-0.337,2.079-0.844,2.922-1.461c0.843-0.619,1.517-1.405,1.967-2.36
					c0.506-0.956,0.787-2.023,0.787-3.202v-10.564C285.781,276.79,285.5,275.723,284.994,274.823z M280.274,288.59
					c0,1.011-0.337,1.854-1.012,2.472c-0.674,0.618-1.573,0.899-2.641,0.899c-1.124,0-2.023-0.281-2.697-0.899
					c-0.674-0.618-1.012-1.461-1.012-2.472v-10.508c0-1.067,0.337-1.91,1.012-2.528c0.674-0.618,1.573-0.899,2.697-0.899
					c1.068,0,1.967,0.28,2.641,0.899c0.674,0.618,1.012,1.461,1.012,2.528V288.59z"/>
				<path style="fill:#E3354E;" d="M298.592,270.722l-6.124,4.439v4.945l6.124-4.439v20.228h5.507v-25.173H298.592z"/>
				<path style="fill:#E3354E;" d="M313.988,290.668v5.226h6.349v-5.226H313.988z"/>
				<path style="fill:#E3354E;" d="M343.15,274.823c-0.506-0.956-1.18-1.742-2.023-2.36c-0.787-0.674-1.798-1.124-2.922-1.461
					c-1.124-0.337-2.248-0.505-3.484-0.505c-1.236,0-2.416,0.169-3.54,0.505c-1.068,0.337-2.079,0.787-2.922,1.461
					c-0.843,0.619-1.517,1.405-1.967,2.36c-0.505,0.899-0.786,1.966-0.786,3.203v10.564c0,1.18,0.281,2.247,0.786,3.202
					c0.45,0.956,1.124,1.742,1.967,2.36c0.843,0.617,1.854,1.124,2.922,1.461c1.124,0.281,2.304,0.449,3.54,0.449
					c1.236,0,2.36-0.169,3.484-0.449c1.124-0.337,2.135-0.844,2.922-1.461c0.843-0.619,1.517-1.405,2.023-2.36
					c0.506-0.956,0.73-2.023,0.73-3.202v-10.564C343.88,276.79,343.656,275.723,343.15,274.823z M338.374,288.59
					c0,1.011-0.337,1.854-1.011,2.472c-0.674,0.618-1.517,0.899-2.641,0.899c-1.124,0-1.967-0.281-2.697-0.899
					c-0.674-0.618-1.011-1.461-1.011-2.472v-10.508c0-1.067,0.337-1.91,1.011-2.528c0.73-0.618,1.574-0.899,2.697-0.899
					c1.124,0,1.967,0.28,2.641,0.899c0.674,0.618,1.011,1.461,1.011,2.528V288.59z"/>
				<path style="fill:#E3354E;" d="M366.075,284.937c-0.787-0.899-1.686-1.573-2.753-2.078c0.955-0.45,1.798-1.068,2.472-1.855
					c0.618-0.842,0.955-1.91,0.955-3.315c0-1.012-0.225-2.023-0.674-2.866c-0.45-0.899-1.068-1.685-1.91-2.304
					c-0.787-0.618-1.798-1.124-2.922-1.461c-1.124-0.393-2.36-0.562-3.653-0.562c-1.292,0-2.472,0.169-3.596,0.505
					c-1.124,0.337-2.079,0.787-2.922,1.405c-0.787,0.619-1.461,1.349-1.966,2.248c-0.506,0.899-0.73,1.91-0.787,3.034h5.506
					c0.056-0.955,0.45-1.741,1.124-2.248c0.73-0.562,1.573-0.786,2.641-0.786c0.956,0,1.854,0.28,2.585,0.786
					c0.731,0.562,1.068,1.348,1.068,2.416c0,0.899-0.281,1.629-0.843,2.248c-0.618,0.617-1.573,0.899-2.978,0.899h-0.787v3.989
					h0.787c1.405,0,2.416,0.338,3.147,0.956c0.73,0.618,1.124,1.461,1.124,2.529c0,1.124-0.393,1.967-1.124,2.585
					c-0.787,0.618-1.742,0.899-2.978,0.899c-0.505,0-1.011-0.056-1.517-0.224c-0.506-0.113-0.955-0.281-1.293-0.562
					c-0.393-0.281-0.674-0.619-0.899-1.067c-0.225-0.394-0.337-0.9-0.393-1.461h-5.507c0.056,1.348,0.337,2.472,0.843,3.37
					c0.562,0.956,1.293,1.742,2.135,2.305c0.899,0.617,1.911,1.067,3.09,1.348c1.124,0.281,2.304,0.393,3.54,0.393
					c1.349,0,2.585-0.112,3.709-0.449c1.18-0.281,2.191-0.731,3.034-1.405c0.899-0.619,1.573-1.405,2.079-2.304
					c0.506-0.956,0.787-2.079,0.787-3.315C367.199,287.073,366.806,285.837,366.075,284.937z"/>
			</g>
			
				<line style="fill:none;stroke:#3C4858;stroke-width:0.8927;stroke-miterlimit:10;" x1="101.711" y1="333.483" x2="417.063" y2="333.483"/>
			<g>
				
					<line style="fill:none;stroke:#3C4858;stroke-width:0.8927;stroke-miterlimit:10;" x1="201.239" y1="341.481" x2="201.239" y2="394.039"/>
				
					<line style="fill:none;stroke:#3C4858;stroke-width:0.8927;stroke-miterlimit:10;" x1="317.535" y1="341.481" x2="317.535" y2="394.039"/>
			</g>
			<polygon style="fill:#C5CAD0;" points="370.891,352.8 374.604,364.228 386.62,364.228 376.899,371.291 380.612,382.719 
				370.891,375.656 361.17,382.719 364.883,371.291 355.162,364.228 367.178,364.228 			"/>
		</g>
		<g style="opacity:0.1;">
			<polygon style="fill:#040000;" points="256,228.483 256,418.594 405.953,418.594 435.296,389.259 435.296,228.483 			"/>
			<polygon style="fill:#040000;" points="405.464,131.316 405.071,130.922 405.352,131.316 368.323,138.62 321.404,147.835 
				284.376,155.14 256,160.703 256,126.314 261.226,125.303 298.254,117.998 345.117,108.784 375.066,102.883 382.145,101.479 
				419.399,94.118 423.276,93.388 424.4,99.118 429.794,126.483 			"/>
			<polygon style="fill:#040000;" points="308.858,228.481 356.633,228.481 394.378,228.481 435.262,228.481 435.262,194.744 
				411.375,194.744 373.629,194.744 325.854,194.744 288.109,194.744 256,194.744 256,228.481 271.112,228.481 			"/>
		</g>
	</g>
</g>
</svg>
